<?xml version="1.0" encoding="UTF-8" standalone="no"?>
<!-- Created with Inkscape (http://www.inkscape.org/) -->

<svg
   width="71.189735mm"
   height="67.104523mm"
   viewBox="0 0 71.189736 67.104525"
   version="1.1"
   id="svg1"
   xml:space="preserve"
   inkscape:version="1.4.2 (f4327f4, 2025-05-13)"
   sodipodi:docname="Rogue Cherry cherry red seul.svg"
   inkscape:export-filename="Rogue Cherry purple seul HD.png"
   inkscape:export-xdpi="757.02753"
   inkscape:export-ydpi="757.02753"
   xmlns:inkscape="http://www.inkscape.org/namespaces/inkscape"
   xmlns:sodipodi="http://sodipodi.sourceforge.net/DTD/sodipodi-0.dtd"
   xmlns="http://www.w3.org/2000/svg"
   xmlns:svg="http://www.w3.org/2000/svg"><sodipodi:namedview
     id="namedview1"
     pagecolor="#ffffff"
     bordercolor="#000000"
     borderopacity="0.25"
     inkscape:showpageshadow="2"
     inkscape:pageopacity="0.0"
     inkscape:pagecheckerboard="0"
     inkscape:deskcolor="#d1d1d1"
     inkscape:document-units="mm"
     inkscape:zoom="0.70710678"
     inkscape:cx="-133.64318"
     inkscape:cy="60.104076"
     inkscape:window-width="1920"
     inkscape:window-height="1017"
     inkscape:window-x="1912"
     inkscape:window-y="-8"
     inkscape:window-maximized="1"
     inkscape:current-layer="g5" /><defs
     id="defs1" /><g
     inkscape:label="Calque 1"
     inkscape:groupmode="layer"
     id="layer1"
     transform="translate(-49.225672,-120.93032)"><path
       style="display:none;fill:#fdce01;stroke-width:0.6725"
       d="m 102.10361,154.25503 c 0.002,-0.19083 0.20854,-1.02755 0.45885,-1.85939 0.25032,-0.83183 0.84916,-2.85358 1.33077,-4.49279 0.48159,-1.63919 1.28171,-4.36156 1.77802,-6.04969 1.08662,-3.69598 3.69381,-12.64285 3.90178,-13.38939 0.0818,-0.2936 0.71005,-2.45547 1.39612,-4.80417 2.46455,-8.43705 3.05219,-10.50099 3.05219,-10.72019 0,-0.17544 -2.00254,-0.22264 -9.44492,-0.22264 H 95.1315 l 0.397306,-0.66725 c 0.476318,-0.79994 2.815097,-4.60132 4.351502,-7.0728 0.608372,-0.97863 1.742622,-2.82023 2.520552,-4.09244 1.36522,-2.232647 7.79101,-12.659004 9.48561,-15.391134 1.64998,-2.660209 3.81508,-6.162147 4.45532,-7.206253 1.2504,-2.039169 11.77156,-18.861237 11.84264,-18.934947 0.25331,-0.262722 0.0886,0.438085 -0.77014,3.276917 -0.53286,1.761528 -1.20777,4.003473 -1.49978,4.9821 -0.29202,0.978627 -0.77117,2.580017 -1.06477,3.558644 -0.2936,0.978627 -1.08284,3.660954 -1.75386,5.960727 -0.67103,2.299773 -1.47258,5.022136 -1.78123,6.049693 -0.30865,1.027559 -0.62798,2.108497 -0.70963,2.402084 -0.0816,0.293589 -1.07592,3.755033 -2.2095,7.692099 -1.13359,3.937066 -2.06106,7.27997 -2.06106,7.42867 0,0.23846 1.11269,0.27036 9.4304,0.27036 5.18672,0 9.4304,0.0564 9.4304,0.12545 0,0.069 -0.42714,0.80963 -0.9492,1.64587 -0.52207,0.83624 -1.99117,3.20189 -3.26467,5.257 -1.2735,2.05512 -3.83421,6.1787 -5.69045,9.16351 -1.85625,2.98481 -4.36386,7.02832 -5.57247,8.98557 -1.20861,1.95726 -2.69367,4.35934 -3.30011,5.33797 -2.68696,4.33591 -10.02774,16.27561 -12.52591,20.37323 -1.63829,2.6872 -1.79425,2.89585 -1.78884,2.39319 z"
       id="path4"
       inkscape:label="eclair" /><g
       id="g6"
       inkscape:label="ROUGE"
       style="display:inline"><g
         id="g17"
         inkscape:label="coupe"
         style="display:none"><path
           id="path6"
           style="display:inline;fill:#c65d5e;fill-opacity:1;stroke-width:0.673717"
           inkscape:label="cerise rouge coupé"
           d="m 75.22806,120.93019 c -0.150638,0 -0.234479,0.0483 -10.501685,6.05338 -4.411794,2.58038 -8.083578,4.78074 -8.159708,4.88962 -0.07622,0.10893 -0.118265,2.86029 -0.09354,6.11436 0.02474,3.25406 0.0068,5.95661 -0.03979,6.00531 -0.0466,0.0486 -1.207645,1.23811 -2.580205,2.64325 -1.372558,1.40514 -2.975298,3.05507 -3.561539,3.66696 l -1.066085,1.1126 3.603914,3.60753 3.603915,3.60805 0.04702,6.13761 0.04651,6.13812 5.347477,3.10317 c 2.941189,1.70665 6.631383,3.84494 8.200016,4.75217 1.568629,0.90725 4.135415,2.39805 5.704045,3.31246 1.568632,0.91443 4.571286,2.65224 6.672461,3.86178 2.60343,1.49865 3.926772,2.16509 4.154268,2.09289 0.183597,-0.0583 1.311715,-0.66794 2.507341,-1.35495 1.195631,-0.68701 3.417552,-1.93586 4.937166,-2.77503 4.05532,-2.2395 10.952489,-6.21282 12.388389,-7.13651 2.61159,-1.68006 5.4533,-4.19003 7.00939,-6.19136 3.12084,-4.01381 5.52669,-9.30519 6.36085,-13.99036 0.71939,-4.04062 0.74978,-6.52487 0.35037,-10.24175 -0.34889,-3.2468 -0.47513,-4.98083 -0.72192,-7.12825 l -0.57826,-5.02966 -4.71082,7.32823 0.14934,1.43609 c 0.81501,7.83771 0.4759,16.64353 -3.95531,22.83582 -2.75524,3.85026 -5.39595,5.97219 -12.281421,9.86709 -1.96079,1.10915 -5.383909,3.0521 -7.606771,4.31757 l -4.041614,2.30063 -5.851322,-3.42304 c -6.843976,-4.00348 -14.35618,-8.38269 -16.947803,-9.88002 L 61.78547,167.9082 v -5.61671 -5.61671 l -2.614828,-2.61948 -2.615344,-2.61948 1.442806,-1.57148 c 0.793453,-0.86449 1.97004,-2.09098 2.614827,-2.72541 l 1.172539,-1.15342 0.001,-5.62033 10e-4,-5.62033 0.489375,-0.2837 c 6.346967,-3.68543 9.739088,-5.67212 11.180197,-6.54792 l 1.778186,-1.08108 1.341003,0.73381 c 0.737574,0.40339 3.413703,1.88272 5.946924,3.28765 2.533224,1.40493 4.63678,2.55437 4.67465,2.55437 0.03783,0 2.891957,-1.44965 6.342248,-3.22151 3.566435,-1.83151 6.406903,-3.18658 6.583577,-3.14038 0.17091,0.0447 1.48718,0.77972 2.92488,1.6335 0.98606,0.58557 1.86631,1.08112 2.3363,1.32033 l 1.20664,-5.34076 c -0.89073,-0.53738 -2.7458,-1.56663 -4.98781,-2.76004 l -1.625737,-0.86506 -3.811136,1.93321 c -2.096003,1.06331 -4.862508,2.48401 -6.147946,3.15692 -1.285452,0.67292 -2.438003,1.22318 -2.561084,1.22318 -0.123093,0 -2.896673,-1.44387 -6.163448,-3.20859 -3.266768,-1.7647 -5.996476,-3.20859 -6.066296,-3.20859 z" /><g
           id="g3"
           style="display:inline"
           inkscape:label="motif interieur rouge"><g
             id="g1"><path
               d="m 95.504993,157.14763 c 1.369243,-1.39455 3.202073,-3.27009 4.07296,-4.16788 l 1.583427,-1.63235 -4.075267,-4.19307 c -2.241394,-2.30619 -4.157647,-4.19391 -4.258334,-4.19493 -0.229605,-0.002 -2.396943,2.17053 -2.396943,2.40305 0,0.0941 1.300231,1.4732 2.889401,3.06457 l 2.889408,2.89339 -2.979812,2.98368 -2.979805,2.98368 1.206942,1.1977 c 0.663824,0.65873 1.286041,1.19769 1.382712,1.19769 0.09667,0 1.296062,-1.14099 2.665311,-2.53553 z"
               style="display:inline;fill:#c65d5e;stroke-width:0.6725"
               id="path1" /></g><g
             id="g2"><path
               d="m 85.291775,174.26928 c -1.031049,-0.24278 -1.623179,-0.6095 -2.389095,-1.47963 -1.54962,-1.76046 -1.498571,-4.32503 0.118272,-5.94188 2.110593,-2.11059 5.579052,-1.73729 7.041302,0.75785 l 0.47363,0.8082 h 1.91398 1.91397 l 2.11157,-2.26863 c 1.16136,-1.24775 2.75881,-2.94923 3.549876,-3.78107 0.79108,-0.83183 1.93093,-2.03287 2.53299,-2.66898 l 1.09467,-1.15656 0.99144,0.97724 c 0.54528,0.53748 0.96927,1.06995 0.94219,1.18327 -0.0454,0.18993 -7.677806,8.37133 -9.230466,9.8944 l -0.68022,0.66724 h -2.64013 -2.64013 l -0.21866,0.6047 c -0.32307,0.89345 -1.60702,1.9902 -2.71514,2.31927 -1.037533,0.30811 -1.194737,0.31425 -2.170049,0.0846 z m 1.803779,-2.90624 c 0.48448,-0.25053 0.91547,-0.93505 0.91547,-1.45401 0,-1.36761 -1.975982,-2.20439 -2.936735,-1.24364 -0.596716,0.59672 -0.709447,1.20053 -0.361166,1.93448 0.455073,0.959 1.411368,1.26533 2.382431,0.76317 z m -7.835239,-8.61251 c -0.751585,-0.26146 -1.418483,-0.5284 -1.482001,-0.59323 -0.06348,-0.0648 0.618619,-2.06655 1.515848,-4.4483 0.897235,-2.38175 2.738337,-7.37309 4.091346,-11.09187 1.353002,-3.71878 2.542727,-6.97586 2.643831,-7.23794 l 0.183821,-0.47653 1.592744,0.6342 1.59274,0.6342 -0.31937,0.90991 c -0.17564,0.50046 -0.8141,2.23107 -1.41879,3.84581 -0.88142,2.35366 -5.158997,14.17982 -6.355454,17.57079 -0.146746,0.41592 -0.359377,0.74994 -0.472505,0.74227 -0.113128,-0.008 -0.820625,-0.22786 -1.57221,-0.48931 z m -7.889045,-5.76885 c -1.369242,-1.39455 -3.202073,-3.27009 -4.072959,-4.16788 l -1.583427,-1.63235 4.075266,-4.19307 c 2.241394,-2.30619 4.157647,-4.19391 4.258334,-4.19493 0.229605,-0.002 2.396943,2.17053 2.396943,2.40305 0,0.0941 -1.300231,1.4732 -2.889401,3.06457 l -2.889407,2.89339 2.979811,2.98368 2.979805,2.98368 -1.206941,1.1977 c -0.663825,0.65873 -1.286041,1.19769 -1.382713,1.19769 -0.09667,0 -1.296061,-1.14099 -2.665311,-2.53553 z"
               style="display:inline;fill:#c65d5e;stroke-width:0.6725"
               id="path1-79"
               sodipodi:nodetypes="sssscccssscssscccsssssssssssssscccssscssscscsscccsss" /></g></g></g><g
         id="g16"
         inkscape:label="Entier"
         style="display:inline"><path
           style="display:inline;fill:#c65d5e;fill-opacity:1;stroke-width:0.673717"
           d="m 82.450645,185.93636 c -2.101175,-1.20954 -5.103745,-2.94731 -6.672377,-3.86174 -1.56863,-0.91441 -4.135498,-2.40486 -5.704127,-3.31211 -1.568633,-0.90723 -5.258494,-3.04588 -8.199683,-4.75253 l -5.347623,-3.103 -0.04668,-6.13797 -0.04668,-6.13797 -3.603897,-3.60766 -3.603906,-3.60764 1.065913,-1.11254 c 0.586241,-0.61189 2.188902,-2.26218 3.56146,-3.66732 1.37256,-1.40514 2.533685,-2.59461 2.580289,-2.64326 0.04658,-0.0487 0.06452,-2.75088 0.03978,-6.00494 -0.02473,-3.25407 0.01734,-6.00559 0.09356,-6.11452 0.07613,-0.10888 3.748157,-2.30924 8.159951,-4.88962 10.267206,-6.00508 10.350693,-6.05322 10.501331,-6.05322 0.06982,0 2.799743,1.44386 6.066511,3.20856 3.266775,1.76472 6.040282,3.20857 6.163375,3.20857 0.123081,0 1.275514,-0.55055 2.560966,-1.22347 1.285438,-0.67291 4.052071,-2.09349 6.148074,-3.1568 l 3.810893,-1.9333 1.625855,0.86541 c 3.09683,1.64842 5.45602,2.98293 5.55424,3.14186 0.091,0.14719 -1.23243,4.92827 -1.41456,5.1104 -0.0444,0.0444 -1.25691,-0.61792 -2.69461,-1.47171 -1.4377,-0.85378 -2.75385,-1.5889 -2.92476,-1.63359 -0.176675,-0.0462 -3.017571,1.30878 -6.584006,3.14029 -3.450291,1.77186 -6.304203,3.22157 -6.34203,3.22157 -0.03787,0 -2.141407,-1.14949 -4.674631,-2.55442 -2.533221,-1.40493 -5.209318,-2.88447 -5.946892,-3.28786 l -1.341021,-0.73347 -1.778422,1.08079 c -1.441109,0.8758 -4.833215,2.86244 -11.180182,6.54787 l -0.489064,0.28399 -0.0012,5.62016 -0.001,5.62014 -1.172338,1.1535 c -0.644787,0.63443 -1.821529,1.8608 -2.614982,2.72529 l -1.442646,1.57176 2.614981,2.61936 2.614985,2.61934 v 5.6168 5.61682 l 1.827094,1.05561 c 2.591623,1.49733 10.103873,5.87686 16.947849,9.88034 l 5.851534,3.42295 4.041554,-2.30086 c 2.222862,-1.26547 5.645853,-3.20835 7.606643,-4.3175 6.885474,-3.8949 9.526374,-6.01652 12.281614,-9.86678 4.43121,-6.19229 4.77022,-14.99814 3.95521,-22.83585 l -0.84764,-8.15128 -7.89169,-4.81014 c -1.00431,-0.61214 0.31348,-6.52148 1.56108,-4.98591 l 11.45439,6.69914 0.86349,7.51343 c 0.24679,2.14742 0.37326,3.88153 0.72215,7.12833 0.39941,3.71688 0.36891,6.20084 -0.35048,10.24146 -0.83416,4.68517 -3.23998,9.97675 -6.36082,13.99056 -1.55609,2.00133 -4.39775,4.5114 -7.00934,6.19146 -1.4359,0.92369 -8.333365,4.89697 -12.388685,7.13647 -1.519614,0.83917 -3.741173,2.08787 -4.936804,2.77488 -1.195626,0.68701 -2.324095,1.29678 -2.507692,1.35507 -0.227496,0.0722 -1.550712,-0.59455 -4.154142,-2.0932 z"
           id="path2-7"
           sodipodi:nodetypes="cssscccccssssssssssscssssssssscsscccsscccccsscsssscsscsssssssscc"
           inkscape:label="cerise rouge entiere" /><g
           id="g15"
           style="display:inline"
           inkscape:label="motif interieur rouge"><g
             id="g13"><path
               d="m 95.504993,157.14763 c 1.369243,-1.39455 3.202073,-3.27009 4.07296,-4.16788 l 1.583427,-1.63235 -4.075267,-4.19307 c -2.241394,-2.30619 -4.157647,-4.19391 -4.258334,-4.19493 -0.229605,-0.002 -2.396943,2.17053 -2.396943,2.40305 0,0.0941 1.300231,1.4732 2.889401,3.06457 l 2.889408,2.89339 -2.979812,2.98368 -2.979805,2.98368 1.206942,1.1977 c 0.663824,0.65873 1.286041,1.19769 1.382712,1.19769 0.09667,0 1.296062,-1.14099 2.665311,-2.53553 z"
               style="display:inline;fill:#c65d5e;stroke-width:0.6725"
               id="path12" /></g><g
             id="g14"><path
               d="m 85.291775,174.26928 c -1.031049,-0.24278 -1.623179,-0.6095 -2.389095,-1.47963 -1.54962,-1.76046 -1.498571,-4.32503 0.118272,-5.94188 2.110593,-2.11059 5.579052,-1.73729 7.041302,0.75785 l 0.47363,0.8082 h 1.91398 1.91397 l 2.11157,-2.26863 c 1.16136,-1.24775 2.75881,-2.94923 3.549876,-3.78107 0.79108,-0.83183 1.93093,-2.03287 2.53299,-2.66898 l 1.09467,-1.15656 0.99144,0.97724 c 0.54528,0.53748 0.96927,1.06995 0.94219,1.18327 -0.0454,0.18993 -7.677806,8.37133 -9.230466,9.8944 l -0.68022,0.66724 h -2.64013 -2.64013 l -0.21866,0.6047 c -0.32307,0.89345 -1.60702,1.9902 -2.71514,2.31927 -1.037533,0.30811 -1.194737,0.31425 -2.170049,0.0846 z m 1.803779,-2.90624 c 0.48448,-0.25053 0.91547,-0.93505 0.91547,-1.45401 0,-1.36761 -1.975982,-2.20439 -2.936735,-1.24364 -0.596716,0.59672 -0.709447,1.20053 -0.361166,1.93448 0.455073,0.959 1.411368,1.26533 2.382431,0.76317 z m -7.835239,-8.61251 c -0.751585,-0.26146 -1.418483,-0.5284 -1.482001,-0.59323 -0.06348,-0.0648 0.618619,-2.06655 1.515848,-4.4483 0.897235,-2.38175 2.738337,-7.37309 4.091346,-11.09187 1.353002,-3.71878 2.542727,-6.97586 2.643831,-7.23794 l 0.183821,-0.47653 1.592744,0.6342 1.59274,0.6342 -0.31937,0.90991 c -0.17564,0.50046 -0.8141,2.23107 -1.41879,3.84581 -0.88142,2.35366 -5.158997,14.17982 -6.355454,17.57079 -0.146746,0.41592 -0.359377,0.74994 -0.472505,0.74227 -0.113128,-0.008 -0.820625,-0.22786 -1.57221,-0.48931 z m -7.889045,-5.76885 c -1.369242,-1.39455 -3.202073,-3.27009 -4.072959,-4.16788 l -1.583427,-1.63235 4.075266,-4.19307 c 2.241394,-2.30619 4.157647,-4.19391 4.258334,-4.19493 0.229605,-0.002 2.396943,2.17053 2.396943,2.40305 0,0.0941 -1.300231,1.4732 -2.889401,3.06457 l -2.889407,2.89339 2.979811,2.98368 2.979805,2.98368 -1.206941,1.1977 c -0.663825,0.65873 -1.286041,1.19769 -1.382713,1.19769 -0.09667,0 -1.296061,-1.14099 -2.665311,-2.53553 z"
               style="display:inline;fill:#c65d5e;stroke-width:0.6725"
               id="path13"
               sodipodi:nodetypes="sssscccssscssscccsssssssssssssscccssscssscscsscccsss" /></g></g></g></g><g
       id="g5"
       inkscape:label="VIOLET"
       style="display:none"><g
         id="g12"
         inkscape:label="coupe"><g
           id="g4"
           inkscape:label="motif interieur violet coupé"
           style="display:inline"><path
             d="m 149.0805,157.18902 c 1.36924,-1.39455 3.20207,-3.27009 4.07296,-4.16789 l 1.58342,-1.63234 -4.07526,-4.19308 c -2.2414,-2.30619 -4.15765,-4.19391 -4.25834,-4.19493 -0.2296,-0.002 -2.39694,2.17053 -2.39694,2.40305 0,0.0941 1.30023,1.47321 2.8894,3.06458 l 2.88941,2.89338 -2.97981,2.98368 -2.97981,2.98368 1.20694,1.1977 c 0.66383,0.65874 1.28604,1.1977 1.38271,1.1977 0.0967,0 1.29607,-1.14099 2.66532,-2.53553 z"
             style="display:inline;fill:#9b63b3;fill-opacity:1;stroke-width:0.6725"
             id="path1-7" /><path
             d="m 131.4713,177.16003 c -1.04579,-0.3031 -2.23265,-1.27128 -2.79675,-2.28145 -1.22075,-2.18606 -0.2995,-5.08405 1.9565,-6.15459 l 0.59742,-0.28349 v -1.99596 -1.99595 l -2.28681,-2.28174 -2.28681,-2.28174 -3.73595,0.0123 -3.73595,0.0123 0.26332,-0.9308 c 0.14482,-0.51194 0.2993,-1.21104 0.34329,-1.55356 l 0.08,-0.62276 8.27714,0.089 8.27714,0.089 3.14064,3.26291 c 3.07257,3.19221 3.15149,3.25872 3.64154,3.06934 0.78576,-0.30369 2.60565,-0.22948 3.41755,0.13933 1.614,0.7332 2.56575,2.24162 2.57217,4.07662 0.007,1.8716 -0.81078,3.27995 -2.36474,4.07473 -2.16251,1.10603 -5.0062,0.23038 -6.0642,-1.86733 -0.59117,-1.17213 -0.69996,-2.07633 -0.38938,-3.23623 l 0.26206,-0.97863 -2.79682,-2.80583 -2.79681,-2.80584 -2.08674,-0.0411 c -1.1477,-0.0226 -2.08667,6.3e-4 -2.08661,0.0516 7e-5,0.051 0.72075,0.80997 1.60152,1.68665 l 1.60139,1.59397 0.003,2.58373 0.003,2.58373 0.88516,0.48818 c 1.58637,0.8749 2.44304,2.53455 2.2551,4.36886 -0.27935,2.7266 -3.14688,4.68904 -5.74948,3.93475 z m 2.47064,-3.36724 c 0.65971,-0.72406 0.64905,-1.46665 -0.0308,-2.1465 -0.39887,-0.39887 -0.68354,-0.52011 -1.22126,-0.52011 -1.72629,0 -2.30193,2.26744 -0.78969,3.11054 0.66707,0.3719 1.4544,0.20071 2.04175,-0.44393 z m 11.99236,-5.00698 c 0.84794,-0.79123 0.54706,-2.27952 -0.55382,-2.73949 -0.54813,-0.22903 -0.70753,-0.23014 -1.2376,-0.009 -0.70218,0.29339 -0.99295,0.74139 -0.99295,1.52988 0,0.77165 0.28588,1.23115 0.94815,1.52398 0.66632,0.29461 1.30724,0.18791 1.83622,-0.3057 z m -25.41317,-17.18769 0.0576,-1.46794 h 10.5739 10.57389 v 1.42071 1.42071 l -10.63145,0.0472 -10.63145,0.0472 z m -0.57526,-6.00522 c -0.0711,-0.48931 -0.23371,-1.24998 -0.36133,-1.69036 l -0.23203,-0.80069 7.92466,0.0482 7.92466,0.0481 2.72053,-2.71713 2.72052,-2.71712 -0.25637,-0.96315 c -0.73069,-2.74515 1.13925,-5.27743 4.05956,-5.49748 3.37572,-0.25436 5.77435,3.22641 4.32949,6.2827 -0.98433,2.08214 -3.19668,3.03284 -5.53667,2.37924 l -0.71173,-0.1988 -3.04829,3.13568 -3.0483,3.13567 h -8.10212 c -6.32276,0 -8.11872,0.0488 -8.1777,0.22242 -0.0416,0.12233 -0.13377,-0.17794 -0.20488,-0.66725 z m 26.00649,-8.72842 c 0.43203,-0.49096 0.53421,-1.45389 0.21714,-2.04635 -0.27394,-0.51185 -1.18353,-0.92054 -1.76469,-0.79289 -0.77178,0.16951 -1.33576,0.88232 -1.33576,1.68823 0,1.57269 1.85913,2.31486 2.88331,1.15101 z"
             style="display:inline;fill:#9b63b3;stroke-width:0.6725"
             id="path1-8" /></g><path
           id="path8"
           style="display:inline;fill:#9b63b3;fill-opacity:1;stroke-width:0.673717"
           inkscape:label="cerise violette coupé"
           d="m 145.24136,120.801 c -0.0698,0 -2.79953,1.44389 -6.0663,3.20859 -3.26677,1.76472 -6.04036,3.20859 -6.16345,3.20859 -0.12309,0 -1.27563,-0.55078 -2.56108,-1.2237 -1.06144,-0.55565 -3.13248,-1.62087 -5.00228,-2.574 l -2.71405,4.53925 c 1.13419,0.54685 2.5914,1.27372 4.19561,2.09755 3.45029,1.77186 6.30392,3.22151 6.34174,3.22151 0.0379,0 2.14143,-1.14944 4.67465,-2.55437 2.53323,-1.40493 5.20934,-2.88426 5.94692,-3.28765 l 1.341,-0.73381 1.77871,1.08107 c 1.44111,0.8758 4.83321,2.8625 11.18019,6.54793 l 0.48886,0.2837 0.001,5.62033 10e-4,5.61981 1.17202,1.15393 c 0.64478,0.63443 1.82189,1.86042 2.61534,2.7249 l 1.44229,1.572 -2.61482,2.61948 -2.61483,2.61896 v 5.61723 5.61671 l -1.82728,1.05575 c -2.59163,1.49733 -10.10382,5.87654 -16.9478,9.88002 l -5.85133,3.42304 -4.04161,-2.30063 c -2.22286,-1.26547 -5.64598,-3.20842 -7.60677,-4.31757 -3.92928,-2.22267 -6.47636,-3.86823 -8.45116,-5.58674 l -3.72174,3.81837 c 1.2035,1.05441 2.52646,2.06638 3.79512,2.88252 1.4359,0.92369 8.33307,4.89701 12.38839,7.13651 1.51962,0.83917 3.74152,2.08802 4.93716,2.77503 1.19562,0.68701 2.32374,1.29666 2.50734,1.35495 0.22749,0.0722 1.55084,-0.59476 4.15427,-2.09341 h 5.2e-4 c 2.10118,-1.20954 5.10383,-2.94682 6.67246,-3.86126 1.56863,-0.91441 4.13541,-2.40522 5.70404,-3.31246 1.56863,-0.90723 5.25831,-3.04604 8.1995,-4.75268 l 5.34748,-3.10266 0.047,-6.13812 0.0465,-6.13813 3.60391,-3.60753 3.60391,-3.60753 -1.06608,-1.1126 c -0.58624,-0.61188 -2.18847,-2.26233 -3.56102,-3.66747 -1.37256,-1.40514 -2.53412,-2.5946 -2.58072,-2.64325 -0.0466,-0.0487 -0.0645,-2.75075 -0.0398,-6.00481 0.0247,-3.25407 -0.0172,-6.00542 -0.0935,-6.11435 -0.0761,-0.10888 -3.74792,-2.30924 -8.15971,-4.88962 C 145.47583,120.8493 145.392,120.801 145.24136,120.801 Z" /></g><g
         id="g11"
         inkscape:label="ENTIER"
         style="display:inline"><path
           style="display:inline;fill:#9b63b3;fill-opacity:1;stroke-width:0.673717"
           d="m 138.01894,185.80707 c 2.10118,-1.20954 5.10375,-2.9473 6.67238,-3.86174 1.56863,-0.91441 4.1355,-2.40486 5.70413,-3.3121 1.56863,-0.90723 5.25849,-3.04589 8.19968,-4.75253 l 5.34763,-3.10301 0.0467,-6.13797 0.0467,-6.13796 3.60389,-3.60767 3.60391,-3.60764 -1.06591,-1.11254 c -0.58624,-0.61188 -2.18891,-2.26217 -3.56146,-3.66731 -1.37256,-1.40514 -2.53369,-2.59461 -2.58029,-2.64326 -0.0466,-0.0487 -0.0645,-2.75088 -0.0398,-6.00494 0.0247,-3.25407 -0.0173,-6.00559 -0.0936,-6.11452 -0.0761,-0.10888 -3.74816,-2.30924 -8.15995,-4.88962 -10.26721,-6.00508 -10.3507,-6.05322 -10.50134,-6.05322 -0.0698,0 -2.79974,1.44386 -6.06651,3.20856 -3.26677,1.76472 -6.04028,3.20857 -6.16337,3.20857 -0.12309,0 -1.27552,-0.55055 -2.56097,-1.22347 -1.28544,-0.67291 -4.05207,-2.09349 -6.14807,-3.1568 l -3.8109,-1.9333 -1.62585,0.86541 c -3.09683,1.64842 -5.45602,2.98293 -5.55424,3.14186 -0.091,0.14718 1.23243,4.92827 1.41456,5.1104 0.0444,0.0444 1.25691,-0.61792 2.69461,-1.47171 1.4377,-0.85378 2.75384,-1.5889 2.92476,-1.63359 0.17667,-0.0462 3.01757,1.30878 6.584,3.14029 3.45029,1.77186 6.30421,3.22157 6.34203,3.22157 0.0379,0 2.14141,-1.14949 4.67463,-2.55442 2.53323,-1.40493 5.20932,-2.88447 5.9469,-3.28786 l 1.34102,-0.73347 1.77842,1.08079 c 1.44111,0.8758 4.83321,2.86244 11.18019,6.54787 l 0.48906,0.28399 0.001,5.62016 10e-4,5.62014 1.17234,1.1535 c 0.64478,0.63443 1.82153,1.8608 2.61498,2.72528 l 1.44265,1.57177 -2.61499,2.61936 -2.61498,2.61934 v 5.6168 5.61682 l -1.82709,1.05561 c -2.59163,1.49733 -10.10388,5.87685 -16.94786,9.88033 l -5.85153,3.42296 -4.04156,-2.30086 c -2.22286,-1.26547 -5.64585,-3.20835 -7.60664,-4.3175 -6.88547,-3.8949 -9.52637,-6.01652 -12.28161,-9.86678 -4.43121,-6.1923 -4.77022,-14.99814 -3.95521,-22.83585 l 0.84764,-8.15128 7.89169,-4.81014 c 1.00431,-0.61214 -0.31348,-6.52148 -1.56108,-4.98591 l -11.45439,6.69914 -0.86349,7.51343 c -0.24679,2.14742 -0.37326,3.88153 -0.72215,7.12833 -0.399406,3.71688 -0.368906,6.20084 0.35048,10.24146 0.83416,4.68517 3.23998,9.97675 6.36082,13.99056 1.55609,2.00133 4.39775,4.5114 7.00934,6.19146 1.4359,0.92369 8.33336,4.89697 12.38868,7.13647 1.51962,0.83917 3.74117,2.08787 4.93681,2.77488 1.19562,0.68701 2.32409,1.29678 2.50769,1.35507 0.22749,0.0722 1.55071,-0.59455 4.15414,-2.0932 z"
           id="path2-7-0"
           sodipodi:nodetypes="cssscccccssssssssssscssssssssscsscccsscccccsscsssscsscsssssssscc"
           inkscape:label="cerise violette entiere" /><g
           id="g10"
           inkscape:label="motif interieur violet entier"
           style="display:inline"><path
             d="m 149.0805,157.18902 c 1.36924,-1.39455 3.20207,-3.27009 4.07296,-4.16789 l 1.58342,-1.63234 -4.07526,-4.19308 c -2.2414,-2.30619 -4.15765,-4.19391 -4.25834,-4.19493 -0.2296,-0.002 -2.39694,2.17053 -2.39694,2.40305 0,0.0941 1.30023,1.47321 2.8894,3.06458 l 2.88941,2.89338 -2.97981,2.98368 -2.97981,2.98368 1.20694,1.1977 c 0.66383,0.65874 1.28604,1.1977 1.38271,1.1977 0.0967,0 1.29607,-1.14099 2.66532,-2.53553 z"
             style="display:inline;fill:#9b63b3;fill-opacity:1;stroke-width:0.6725"
             id="path9" /><path
             id="path10"
             style="display:inline;fill:#9b63b3;stroke-width:0.6725"
             d="m 145.06669,131.29855 c -0.20265,-0.0123 -0.40965,-0.0113 -0.62063,0.005 -2.92031,0.22005 -4.79039,2.75219 -4.0597,5.49734 l 0.25631,0.96325 -2.72025,2.71714 -2.72076,2.71715 -7.92458,-0.0481 -7.92458,-0.0481 0.002,0.007 -6.84817,-0.003 c -0.10032,0.98527 -0.18223,1.98569 -0.23977,2.99362 l 7.81864,-0.001 c 0.008,9.4e-4 0.016,6e-4 0.0253,0 0.31465,-0.005 1.89534,-0.0615 8.2181,-0.0615 h 8.10184 l 3.04839,-3.13573 3.04839,-3.13572 0.71159,0.19895 c 2.33999,0.6536 4.55228,-0.29704 5.53661,-2.37918 1.35455,-2.86527 -0.66908,-6.10346 -3.70882,-6.28747 z m -0.43046,2.70319 c 0.56717,-2.9e-4 1.29354,0.36862 1.53324,0.81649 0.31707,0.59246 0.21499,1.55543 -0.21704,2.04639 -1.02418,1.16385 -2.88355,0.42134 -2.88355,-1.15135 0,-0.80591 0.56406,-1.51876 1.33584,-1.68827 0.0726,-0.016 0.15048,-0.0232 0.23151,-0.0233 z m -32.45694,16.12822 c 0.0165,0.98236 0.0627,1.96326 0.14418,2.93625 h 9.94771 l -5.1e-4,-0.008 8.82426,-0.0393 10.6314,-0.047 v -1.42058 -1.4211 h -10.57352 -10.57403 v 0.003 z m 0.64803,6.65799 c 0.20511,1.06636 0.46371,2.11231 0.78393,3.12797 l 5.96139,-0.006 v -0.002 l 3.34605,-0.0109 3.73621,-0.0124 2.28668,2.28203 2.28668,2.28151 v 1.99626 1.99575 l -0.59738,0.2837 c -2.256,1.07054 -3.17722,3.9686 -1.95647,6.15466 0.5641,1.01017 1.75094,1.9779 2.79673,2.281 h 0.001 c 2.6026,0.75429 5.47017,-1.20804 5.74952,-3.93464 0.18794,-1.83431 -0.66879,-3.49383 -2.25516,-4.36873 l -0.88521,-0.48834 -0.003,-2.58382 -0.003,-2.58331 -1.60145,-1.59421 c -0.88077,-0.87668 -1.60138,-1.63572 -1.60145,-1.68672 -6e-5,-0.051 0.93847,-0.0743 2.08617,-0.0517 l 2.0867,0.0413 2.79724,2.80603 2.79673,2.80552 -0.262,0.97875 c -0.31058,1.1599 -0.20204,2.06385 0.38913,3.23598 1.058,2.09771 3.90171,2.97361 6.06422,1.86758 1.55396,-0.79478 2.37172,-2.20308 2.36472,-4.07468 -0.006,-1.835 -0.95794,-3.34356 -2.57194,-4.07676 -0.8119,-0.36881 -2.63212,-0.44321 -3.41788,-0.13952 -0.49005,0.18938 -0.56855,0.12314 -3.64112,-3.06907 l -3.14089,-3.26285 -8.27702,-0.0889 -8.27701,-0.0894 -0.0295,0.22789 0.0212,-0.22634 z m 31.92776,9.08523 c 0.17463,0.001 0.35122,0.0586 0.62529,0.17312 1.10088,0.45997 1.40191,1.94814 0.55397,2.73937 -0.52898,0.49361 -1.16975,0.60001 -1.83607,0.3054 -0.66227,-0.29283 -0.94826,-0.75228 -0.94826,-1.52393 0,-0.78849 0.29053,-1.23624 0.99271,-1.52963 0.26503,-0.11057 0.43774,-0.16559 0.61236,-0.16433 z m -12.06541,5.25291 c 0.53772,0 0.82276,0.12151 1.22163,0.52038 0.67985,0.67985 0.6902,1.42207 0.0305,2.14613 -0.58735,0.64464 -1.37467,0.8158 -2.04174,0.4439 -1.51224,-0.8431 -0.93667,-3.11041 0.78962,-3.11041 z" /></g></g></g><text
       xml:space="preserve"
       style="font-size:24.1006px;text-align:start;letter-spacing:0.678834px;word-spacing:4.01677px;writing-mode:lr-tb;direction:ltr;text-anchor:start;display:none;fill:#000000;stroke-width:0.200839"
       x="17.334053"
       y="189.02473"
       id="text5"
       transform="matrix(0.88594597,0,0,1.128737,0.07863948,0.11775681)"><tspan
         sodipodi:role="line"
         id="tspan5"
         x="0"
         y="0"
         style="font-style:normal;font-variant:normal;font-weight:normal;font-stretch:normal;font-size:24.1006px;font-family:Montserrat;-inkscape-font-specification:Montserrat;letter-spacing:0.678834px;word-spacing:4.01677px;stroke-width:0.200839"
         dx="0">ROGUE CHERRY</tspan></text></g></svg>
