<?xml version="1.0" encoding="UTF-8" standalone="no"?>
<!-- Created with Inkscape (http://www.inkscape.org/) -->

<svg
   width="40.063759mm"
   height="95.171028mm"
   viewBox="0 0 40.063759 95.171027"
   version="1.1"
   id="svg1"
   xml:space="preserve"
   inkscape:version="1.4.2 (f4327f4, 2025-05-13)"
   sodipodi:docname="Rogue Cherry eclair seul.svg"
   inkscape:export-filename="Rogue Cherry HD.png"
   inkscape:export-xdpi="329.39633"
   inkscape:export-ydpi="329.39633"
   xmlns:inkscape="http://www.inkscape.org/namespaces/inkscape"
   xmlns:sodipodi="http://sodipodi.sourceforge.net/DTD/sodipodi-0.dtd"
   xmlns="http://www.w3.org/2000/svg"
   xmlns:svg="http://www.w3.org/2000/svg"><sodipodi:namedview
     id="namedview1"
     pagecolor="#ffffff"
     bordercolor="#000000"
     borderopacity="0.25"
     inkscape:showpageshadow="2"
     inkscape:pageopacity="0.0"
     inkscape:pagecheckerboard="0"
     inkscape:deskcolor="#d1d1d1"
     inkscape:document-units="mm"
     inkscape:zoom="0.25669573"
     inkscape:cx="216.20928"
     inkscape:cy="368.14013"
     inkscape:window-width="1920"
     inkscape:window-height="1017"
     inkscape:window-x="1912"
     inkscape:window-y="-8"
     inkscape:window-maximized="1"
     inkscape:current-layer="layer1" /><defs
     id="defs1" /><g
     inkscape:label="Calque 1"
     inkscape:groupmode="layer"
     id="layer1"
     transform="translate(-95.1315,-59.300876)"><path
       style="display:inline;fill:#fdce01;stroke-width:0.6725"
       d="m 102.10361,154.25503 c 0.002,-0.19083 0.20854,-1.02755 0.45885,-1.85939 0.25032,-0.83183 0.84916,-2.85358 1.33077,-4.49279 0.48159,-1.63919 1.28171,-4.36156 1.77802,-6.04969 1.08662,-3.69598 3.69381,-12.64285 3.90178,-13.38939 0.0818,-0.2936 0.71005,-2.45547 1.39612,-4.80417 2.46455,-8.43705 3.05219,-10.50099 3.05219,-10.72019 0,-0.17544 -2.00254,-0.22264 -9.44492,-0.22264 H 95.1315 l 0.397306,-0.66725 c 0.476318,-0.79994 2.815097,-4.60132 4.351502,-7.0728 0.608372,-0.97863 1.742622,-2.82023 2.520552,-4.09244 1.36522,-2.232647 7.79101,-12.659004 9.48561,-15.391134 1.64998,-2.660209 3.81508,-6.162147 4.45532,-7.206253 1.2504,-2.039169 11.77156,-18.861237 11.84264,-18.934947 0.25331,-0.262722 0.0886,0.438085 -0.77014,3.276917 -0.53286,1.761528 -1.20777,4.003473 -1.49978,4.9821 -0.29202,0.978627 -0.77117,2.580017 -1.06477,3.558644 -0.2936,0.978627 -1.08284,3.660954 -1.75386,5.960727 -0.67103,2.299773 -1.47258,5.022136 -1.78123,6.049693 -0.30865,1.027559 -0.62798,2.108497 -0.70963,2.402084 -0.0816,0.293589 -1.07592,3.755033 -2.2095,7.692099 -1.13359,3.937066 -2.06106,7.27997 -2.06106,7.42867 0,0.23846 1.11269,0.27036 9.4304,0.27036 5.18672,0 9.4304,0.0564 9.4304,0.12545 0,0.069 -0.42714,0.80963 -0.9492,1.64587 -0.52207,0.83624 -1.99117,3.20189 -3.26467,5.257 -1.2735,2.05512 -3.83421,6.1787 -5.69045,9.16351 -1.85625,2.98481 -4.36386,7.02832 -5.57247,8.98557 -1.20861,1.95726 -2.69367,4.35934 -3.30011,5.33797 -2.68696,4.33591 -10.02774,16.27561 -12.52591,20.37323 -1.63829,2.6872 -1.79425,2.89585 -1.78884,2.39319 z"
       id="path4" /></g></svg>
